<?xml version="1.0" encoding="iso-8859-1"?>
<!DOCTYPE svg PUBLIC "-//W3C//DTD SVG 1.1//EN" "http://www.w3.org/Graphics/SVG/1.1/DTD/svg11.dtd">
<svg version="1.1" xmlns="http://www.w3.org/2000/svg" xmlns:xlink="http://www.w3.org/1999/xlink" x="12px" y="12px"
	 viewBox="0 0 297.613 297.613" style="enable-background:new 0 0 297.613 297.613;" xml:space="preserve">
<g>
	<circle cx="59.32" cy="59.769" r="14.83"/>
	<circle cx="59.32" cy="14.83" r="14.83"/>
	<circle cx="104.261" cy="59.769" r="14.83"/>
	<circle cx="104.261" cy="103.81" r="14.83"/>
	<circle cx="104.261" cy="14.83" r="14.83"/>
	<circle cx="148.302" cy="59.769" r="14.83"/>
	<circle cx="148.302" cy="103.81" r="14.83"/>
	<circle cx="148.302" cy="14.83" r="14.83"/>
	<circle cx="192.343" cy="59.769" r="14.83"/>
	<circle cx="192.343" cy="103.81" r="14.83"/>
	<circle cx="148.302" cy="147.852" r="14.83"/>
	<circle cx="192.343" cy="147.852" r="14.83"/>
	<circle cx="104.261" cy="192.79" r="14.831"/>
	<circle cx="148.302" cy="192.79" r="14.831"/>
	<circle cx="192.343" cy="192.79" r="14.831"/>
	<circle cx="59.32" cy="236.887" r="14.83"/>
	<circle cx="104.261" cy="236.887" r="14.83"/>
	<circle cx="148.302" cy="236.887" r="14.83"/>
	<circle cx="192.343" cy="236.887" r="14.83"/>
	<circle cx="238.238" cy="103.81" r="14.83"/>
	<circle cx="238.238" cy="147.852" r="14.83"/>
	<circle cx="238.238" cy="192.79" r="14.831"/>
	<circle cx="59.32" cy="282.782" r="14.831"/>
	<circle cx="104.261" cy="282.782" r="14.831"/>
	<circle cx="148.302" cy="282.782" r="14.831"/>
	<circle cx="282.334" cy="147.852" r="14.83"/>
</g>

</svg>
